<svg xmlns="http://www.w3.org/2000/svg" xmlns:xlink="http://www.w3.org/1999/xlink" width="592" zoomAndPan="magnify" viewBox="0 0 444 95.999999" height="128" preserveAspectRatio="xMidYMid meet" version="1.0"><defs><g/></defs><g fill="#9d3be1" fill-opacity="1"><g transform="translate(30.568937, 64.405974)"><g><path d="M 10.644531 0 C 11.335938 0 13.304688 -0.0390625 13.882812 -2.699219 C 16.773438 -16.3125 16.8125 -16.582031 16.8125 -16.851562 C 16.8125 -18.625 15.230469 -18.664062 14.613281 -18.664062 L 11.222656 -18.664062 L 13.109375 -27.417969 L 18.78125 -27.417969 C 19.203125 -27.417969 19.628906 -27.765625 19.703125 -28.1875 L 20.4375 -31.773438 C 20.4375 -32.121094 20.207031 -32.390625 19.820312 -32.390625 L 10.679688 -32.390625 C 9.988281 -32.390625 8.019531 -32.351562 7.441406 -29.730469 C 4.511719 -15.847656 4.472656 -15.578125 4.472656 -15.308594 C 4.472656 -13.535156 6.054688 -13.496094 6.671875 -13.496094 L 10.066406 -13.496094 L 8.328125 -5.4375 L 3.046875 -5.4375 C 2.621094 -5.4375 2.238281 -5.089844 2.121094 -4.664062 C 1.3125 -0.695312 1.273438 -0.617188 1.273438 -0.578125 C 1.273438 -0.230469 1.582031 0 1.929688 0 Z M 10.644531 0 "/></g></g></g><g fill="#9d3be1" fill-opacity="1"><g transform="translate(47.380713, 64.405974)"><g><path d="M 1.65625 -38.5625 C 1.234375 -38.5625 0.808594 -38.214844 0.734375 -37.789062 L 0 -34.359375 C 0 -33.894531 0.230469 -33.585938 0.617188 -33.585938 L 8.289062 -33.585938 C 1.3125 -0.695312 1.273438 -0.617188 1.273438 -0.578125 C 1.273438 -0.230469 1.582031 0 1.929688 0 L 6.476562 0 C 6.902344 0 7.289062 -0.347656 7.402344 -0.769531 L 14.382812 -33.585938 L 22.058594 -33.585938 C 22.480469 -33.585938 22.90625 -33.933594 22.984375 -34.359375 L 23.714844 -37.945312 C 23.714844 -38.292969 23.484375 -38.5625 23.097656 -38.5625 Z M 1.65625 -38.5625 "/></g></g></g><g fill="#9d3be1" fill-opacity="1"><g transform="translate(57.753178, 64.405974)"><g><path d="M 19.320312 -18.855469 C 21.710938 -30.039062 21.75 -30.308594 21.75 -30.578125 C 21.75 -32.351562 20.167969 -32.390625 19.550781 -32.390625 L 8.792969 -32.390625 C 8.367188 -32.390625 7.945312 -32.042969 7.867188 -31.621094 C 1.3125 -0.695312 1.273438 -0.617188 1.273438 -0.578125 C 1.273438 -0.230469 1.582031 0 1.929688 0 L 6.515625 0 C 6.941406 0 7.328125 -0.347656 7.441406 -0.769531 L 10.179688 -13.726562 L 12.03125 -13.726562 C 9.292969 -0.695312 9.253906 -0.617188 9.253906 -0.578125 C 9.253906 -0.230469 9.5625 0 9.910156 0 L 14.5 0 C 14.921875 0 15.308594 -0.347656 15.425781 -0.769531 C 18.164062 -13.613281 18.199219 -13.882812 18.199219 -14.152344 C 18.199219 -15.964844 16.621094 -15.964844 16.003906 -15.964844 L 16.082031 -16.15625 C 16.773438 -16.15625 18.78125 -16.15625 19.320312 -18.855469 Z M 13.109375 -27.417969 L 14.960938 -27.417969 L 13.074219 -18.664062 L 11.222656 -18.664062 Z M 13.109375 -27.417969 "/></g></g></g><g fill="#9d3be1" fill-opacity="1"><g transform="translate(76.184423, 64.405974)"><g><path d="M 7.867188 -31.621094 C 1.3125 -0.695312 1.273438 -0.617188 1.273438 -0.578125 C 1.273438 -0.230469 1.582031 0 1.929688 0 L 13.1875 0 C 13.613281 0 13.996094 -0.347656 14.113281 -0.769531 L 14.808594 -4.203125 L 14.808594 -4.359375 C 14.808594 -4.703125 14.578125 -4.972656 14.191406 -4.972656 L 8.328125 -4.972656 L 10.257812 -14.113281 L 14.230469 -14.113281 C 14.652344 -14.113281 15.078125 -14.460938 15.191406 -14.886719 C 15.964844 -18.742188 16.003906 -18.78125 16.003906 -18.855469 C 16.003906 -19.203125 15.734375 -19.433594 15.386719 -19.433594 L 11.414062 -19.433594 L 13.109375 -27.417969 L 18.972656 -27.417969 C 19.398438 -27.417969 19.820312 -27.765625 19.898438 -28.1875 L 20.667969 -31.773438 C 20.667969 -32.121094 20.4375 -32.390625 20.050781 -32.390625 L 8.792969 -32.390625 C 8.367188 -32.390625 7.945312 -32.042969 7.867188 -31.621094 Z M 7.867188 -31.621094 "/></g></g></g><g fill="#9d3be1" fill-opacity="1"><g transform="translate(93.227555, 64.405974)"><g><path d="M 10.679688 -32.390625 C 9.988281 -32.390625 8.019531 -32.351562 7.441406 -29.691406 C 1.3125 -0.695312 1.273438 -0.617188 1.273438 -0.578125 C 1.273438 -0.230469 1.582031 0 1.929688 0 L 6.515625 0 C 6.941406 0 7.328125 -0.347656 7.441406 -0.769531 L 9.679688 -11.414062 L 11.53125 -11.414062 C 9.292969 -0.695312 9.253906 -0.617188 9.253906 -0.578125 C 9.253906 -0.230469 9.5625 0 9.910156 0 L 14.5 0 C 14.921875 0 15.308594 -0.347656 15.425781 -0.769531 C 21.710938 -30.039062 21.75 -30.308594 21.75 -30.578125 C 21.75 -32.351562 20.167969 -32.390625 19.550781 -32.390625 Z M 13.109375 -27.417969 L 14.960938 -27.417969 L 12.609375 -16.351562 L 10.757812 -16.351562 Z M 13.109375 -27.417969 "/></g></g></g><g fill="#9d3be1" fill-opacity="1"><g transform="translate(111.6588, 64.405974)"><g><path d="M 10.71875 -32.390625 C 10.027344 -32.390625 8.019531 -32.390625 7.441406 -29.691406 C 1.3125 -0.695312 1.273438 -0.617188 1.273438 -0.578125 C 1.273438 -0.230469 1.582031 0 1.929688 0 L 6.515625 0 C 6.941406 0 7.328125 -0.347656 7.441406 -0.769531 L 13.109375 -27.417969 L 14.960938 -27.417969 C 9.292969 -0.65625 9.253906 -0.617188 9.253906 -0.539062 C 9.253906 -0.191406 9.523438 0.0390625 9.871094 0.0390625 L 14.460938 0.0390625 C 14.886719 0.0390625 15.308594 -0.308594 15.425781 -0.734375 L 21.09375 -27.417969 L 22.984375 -27.417969 C 17.3125 -0.695312 17.277344 -0.617188 17.277344 -0.578125 C 17.277344 -0.230469 17.585938 0 17.929688 0 L 22.480469 0 C 22.90625 0 23.292969 -0.347656 23.40625 -0.769531 C 29.578125 -30.039062 29.617188 -30.308594 29.617188 -30.578125 C 29.617188 -32.390625 27.996094 -32.390625 27.378906 -32.390625 L 21.75 -32.390625 C 19.050781 -32.390625 18.625 -30.464844 18.507812 -29.769531 L 18.316406 -29.769531 C 18.355469 -30.039062 18.394531 -30.347656 18.394531 -30.65625 C 18.394531 -31.464844 18.046875 -32.390625 16.15625 -32.390625 Z M 10.71875 -32.390625 "/></g></g></g><g fill="#9d3be1" fill-opacity="1"><g transform="translate(137.994592, 64.405974)"><g><path d="M 13.996094 -31.773438 C 13.996094 -32.121094 13.765625 -32.390625 13.382812 -32.390625 L 8.792969 -32.390625 C 8.367188 -32.390625 7.945312 -32.042969 7.867188 -31.621094 L -0.152344 6.324219 C -0.152344 6.671875 0.0390625 6.941406 0.425781 6.941406 L 13.765625 6.941406 C 14.191406 6.941406 14.613281 6.59375 14.691406 6.167969 L 15.539062 2.351562 L 15.539062 2.199219 C 15.539062 1.851562 15.308594 1.582031 14.921875 1.582031 L 6.941406 1.582031 Z M 13.996094 -31.773438 "/></g></g></g><g fill="#9d3be1" fill-opacity="1"><g transform="translate(148.367055, 64.405974)"><g><path d="M 8.792969 -32.390625 C 8.367188 -32.390625 7.945312 -32.042969 7.867188 -31.621094 C 1.3125 -0.695312 1.273438 -0.617188 1.273438 -0.578125 C 1.273438 -0.230469 1.582031 0 1.929688 0 L 6.515625 0 C 6.941406 0 7.328125 -0.347656 7.441406 -0.769531 L 13.996094 -31.773438 C 13.996094 -32.121094 13.765625 -32.390625 13.382812 -32.390625 Z M 8.792969 -32.390625 "/></g></g></g><g fill="#9d3be1" fill-opacity="1"><g transform="translate(158.739519, 64.405974)"><g><path d="M 1.65625 -38.5625 C 1.234375 -38.5625 0.808594 -38.214844 0.734375 -37.789062 L 0 -34.359375 C 0 -33.894531 0.230469 -33.585938 0.617188 -33.585938 L 8.289062 -33.585938 C 1.3125 -0.695312 1.273438 -0.617188 1.273438 -0.578125 C 1.273438 -0.230469 1.582031 0 1.929688 0 L 6.476562 0 C 6.902344 0 7.289062 -0.347656 7.402344 -0.769531 L 14.382812 -33.585938 L 22.058594 -33.585938 C 22.480469 -33.585938 22.90625 -33.933594 22.984375 -34.359375 L 23.714844 -37.945312 C 23.714844 -38.292969 23.484375 -38.5625 23.097656 -38.5625 Z M 1.65625 -38.5625 "/></g></g></g><g fill="#9d3be1" fill-opacity="1"><g transform="translate(169.111982, 64.405974)"><g><path d="M 15.425781 -13.496094 C 15.847656 -13.496094 16.273438 -13.84375 16.351562 -14.269531 L 17.082031 -17.855469 C 17.082031 -18.199219 16.851562 -18.472656 16.464844 -18.472656 L 5.824219 -18.472656 C 5.398438 -18.472656 4.972656 -18.125 4.898438 -17.699219 L 4.164062 -14.113281 C 4.164062 -13.765625 4.394531 -13.496094 4.78125 -13.496094 Z M 15.425781 -13.496094 "/></g></g></g><g fill="#9d3be1" fill-opacity="1"><g transform="translate(185.538164, 64.405974)"><g><path d="M 19.472656 -19.089844 C 21.789062 -30.039062 21.824219 -30.308594 21.824219 -30.578125 C 21.824219 -32.390625 20.207031 -32.390625 19.589844 -32.390625 L 8.792969 -32.390625 C 8.367188 -32.390625 7.945312 -32.042969 7.867188 -31.621094 C 1.3125 -0.695312 1.273438 -0.617188 1.273438 -0.578125 C 1.273438 -0.230469 1.582031 0 1.929688 0 L 12.726562 0 C 13.417969 0 15.425781 0 16.003906 -2.699219 C 18.355469 -13.84375 18.394531 -14.152344 18.394531 -14.421875 C 18.394531 -16.195312 16.851562 -16.195312 16.234375 -16.195312 L 16.273438 -16.390625 C 16.96875 -16.390625 18.894531 -16.390625 19.472656 -19.089844 Z M 10.179688 -13.726562 L 12.03125 -13.726562 L 10.179688 -4.972656 L 8.328125 -4.972656 Z M 13.109375 -27.417969 L 14.960938 -27.417969 L 13.074219 -18.664062 L 11.222656 -18.664062 Z M 13.109375 -27.417969 "/></g></g></g><g fill="#9d3be1" fill-opacity="1"><g transform="translate(204.046529, 64.405974)"><g><path d="M 13.996094 -31.773438 C 13.996094 -32.121094 13.765625 -32.390625 13.382812 -32.390625 L 8.792969 -32.390625 C 8.367188 -32.390625 7.945312 -32.042969 7.867188 -31.621094 L -0.152344 6.324219 C -0.152344 6.671875 0.0390625 6.941406 0.425781 6.941406 L 13.765625 6.941406 C 14.191406 6.941406 14.613281 6.59375 14.691406 6.167969 L 15.539062 2.351562 L 15.539062 2.199219 C 15.539062 1.851562 15.308594 1.582031 14.921875 1.582031 L 6.941406 1.582031 Z M 13.996094 -31.773438 "/></g></g></g><g fill="#9d3be1" fill-opacity="1"><g transform="translate(214.418993, 64.405974)"><g><path d="M 10.644531 0 C 11.335938 0 13.304688 -0.0390625 13.882812 -2.699219 C 16.773438 -16.3125 16.8125 -16.582031 16.8125 -16.851562 C 16.8125 -18.625 15.230469 -18.664062 14.613281 -18.664062 L 11.222656 -18.664062 L 13.109375 -27.417969 L 18.78125 -27.417969 C 19.203125 -27.417969 19.628906 -27.765625 19.703125 -28.1875 L 20.4375 -31.773438 C 20.4375 -32.121094 20.207031 -32.390625 19.820312 -32.390625 L 10.679688 -32.390625 C 9.988281 -32.390625 8.019531 -32.351562 7.441406 -29.730469 C 4.511719 -15.847656 4.472656 -15.578125 4.472656 -15.308594 C 4.472656 -13.535156 6.054688 -13.496094 6.671875 -13.496094 L 10.066406 -13.496094 L 8.328125 -5.4375 L 3.046875 -5.4375 C 2.621094 -5.4375 2.238281 -5.089844 2.121094 -4.664062 C 1.3125 -0.695312 1.273438 -0.617188 1.273438 -0.578125 C 1.273438 -0.230469 1.582031 0 1.929688 0 Z M 10.644531 0 "/></g></g></g><g fill="#9d3be1" fill-opacity="1"><g transform="translate(231.230763, 64.405974)"><g><path d="M 15.425781 -13.496094 C 15.847656 -13.496094 16.273438 -13.84375 16.351562 -14.269531 L 17.082031 -17.855469 C 17.082031 -18.199219 16.851562 -18.472656 16.464844 -18.472656 L 5.824219 -18.472656 C 5.398438 -18.472656 4.972656 -18.125 4.898438 -17.699219 L 4.164062 -14.113281 C 4.164062 -13.765625 4.394531 -13.496094 4.78125 -13.496094 Z M 15.425781 -13.496094 "/></g></g></g><g fill="#9d3be1" fill-opacity="1"><g transform="translate(247.656945, 64.405974)"><g><path d="M 7.441406 -29.691406 C 1.621094 -2.390625 1.621094 -2.082031 1.621094 -1.851562 C 1.621094 0 3.238281 0 3.855469 0 L 14.152344 0 C 14.578125 0 14.960938 -0.347656 15.078125 -0.769531 L 15.773438 -4.203125 L 15.773438 -4.359375 C 15.773438 -4.703125 15.539062 -4.972656 15.15625 -4.972656 L 8.328125 -4.972656 L 13.109375 -27.417969 L 19.550781 -27.417969 C 19.976562 -27.417969 20.398438 -27.765625 20.476562 -28.1875 L 21.246094 -31.773438 C 21.246094 -32.121094 21.015625 -32.390625 20.628906 -32.390625 L 10.71875 -32.390625 C 10.027344 -32.390625 8.019531 -32.390625 7.441406 -29.691406 Z M 7.441406 -29.691406 "/></g></g></g><g fill="#9d3be1" fill-opacity="1"><g transform="translate(265.047105, 64.405974)"><g><path d="M 7.441406 -29.691406 C 1.621094 -2.390625 1.621094 -2.082031 1.621094 -1.851562 C 1.621094 -0.0390625 3.199219 0 3.816406 0 L 12.648438 0 C 13.34375 0 15.308594 -0.0390625 15.886719 -2.699219 C 21.671875 -30.039062 21.710938 -30.308594 21.710938 -30.578125 C 21.710938 -32.351562 20.128906 -32.390625 19.511719 -32.390625 L 10.644531 -32.390625 C 9.910156 -32.390625 8.019531 -32.316406 7.441406 -29.691406 Z M 10.179688 -4.972656 L 8.328125 -4.972656 L 13.109375 -27.417969 L 14.960938 -27.417969 Z M 10.179688 -4.972656 "/></g></g></g><g fill="#9d3be1" fill-opacity="1"><g transform="translate(283.439789, 64.405974)"><g><path d="M 8.792969 -32.390625 C 8.367188 -32.390625 7.945312 -32.042969 7.867188 -31.621094 C 1.3125 -0.695312 1.273438 -0.617188 1.273438 -0.578125 C 1.273438 -0.230469 1.582031 0 1.929688 0 L 6.015625 0 C 6.441406 0 6.824219 -0.347656 6.941406 -0.769531 L 10.066406 -15.425781 C 11.761719 -0.695312 11.722656 -0.617188 11.722656 -0.578125 C 11.722656 -0.230469 12.03125 0 12.378906 0 L 16.390625 0 C 16.8125 0 17.199219 -0.347656 17.3125 -0.769531 L 23.871094 -31.773438 C 23.871094 -32.121094 23.636719 -32.390625 23.253906 -32.390625 L 19.242188 -32.390625 C 18.816406 -32.390625 18.394531 -32.042969 18.316406 -31.621094 L 14.960938 -15.808594 L 13.496094 -31.773438 C 13.496094 -32.121094 13.265625 -32.390625 12.878906 -32.390625 Z M 8.792969 -32.390625 "/></g></g></g><g fill="#9d3be1" fill-opacity="1"><g transform="translate(303.683295, 64.405974)"><g><path d="M 8.792969 -32.390625 C 8.367188 -32.390625 7.945312 -32.042969 7.867188 -31.621094 C 1.3125 -0.695312 1.273438 -0.617188 1.273438 -0.578125 C 1.273438 -0.230469 1.582031 0 1.929688 0 L 6.015625 0 C 6.441406 0 6.824219 -0.347656 6.941406 -0.769531 L 10.066406 -15.425781 C 11.761719 -0.695312 11.722656 -0.617188 11.722656 -0.578125 C 11.722656 -0.230469 12.03125 0 12.378906 0 L 16.390625 0 C 16.8125 0 17.199219 -0.347656 17.3125 -0.769531 L 23.871094 -31.773438 C 23.871094 -32.121094 23.636719 -32.390625 23.253906 -32.390625 L 19.242188 -32.390625 C 18.816406 -32.390625 18.394531 -32.042969 18.316406 -31.621094 L 14.960938 -15.808594 L 13.496094 -31.773438 C 13.496094 -32.121094 13.265625 -32.390625 12.878906 -32.390625 Z M 8.792969 -32.390625 "/></g></g></g><g fill="#9d3be1" fill-opacity="1"><g transform="translate(323.926801, 64.405974)"><g><path d="M 7.867188 -31.621094 C 1.3125 -0.695312 1.273438 -0.617188 1.273438 -0.578125 C 1.273438 -0.230469 1.582031 0 1.929688 0 L 13.1875 0 C 13.613281 0 13.996094 -0.347656 14.113281 -0.769531 L 14.808594 -4.203125 L 14.808594 -4.359375 C 14.808594 -4.703125 14.578125 -4.972656 14.191406 -4.972656 L 8.328125 -4.972656 L 10.257812 -14.113281 L 14.230469 -14.113281 C 14.652344 -14.113281 15.078125 -14.460938 15.191406 -14.886719 C 15.964844 -18.742188 16.003906 -18.78125 16.003906 -18.855469 C 16.003906 -19.203125 15.734375 -19.433594 15.386719 -19.433594 L 11.414062 -19.433594 L 13.109375 -27.417969 L 18.972656 -27.417969 C 19.398438 -27.417969 19.820312 -27.765625 19.898438 -28.1875 L 20.667969 -31.773438 C 20.667969 -32.121094 20.4375 -32.390625 20.050781 -32.390625 L 8.792969 -32.390625 C 8.367188 -32.390625 7.945312 -32.042969 7.867188 -31.621094 Z M 7.867188 -31.621094 "/></g></g></g><g fill="#9d3be1" fill-opacity="1"><g transform="translate(340.969933, 64.405974)"><g><path d="M 7.441406 -29.691406 C 1.621094 -2.390625 1.621094 -2.082031 1.621094 -1.851562 C 1.621094 0 3.238281 0 3.855469 0 L 14.152344 0 C 14.578125 0 14.960938 -0.347656 15.078125 -0.769531 L 15.773438 -4.203125 L 15.773438 -4.359375 C 15.773438 -4.703125 15.539062 -4.972656 15.15625 -4.972656 L 8.328125 -4.972656 L 13.109375 -27.417969 L 19.550781 -27.417969 C 19.976562 -27.417969 20.398438 -27.765625 20.476562 -28.1875 L 21.246094 -31.773438 C 21.246094 -32.121094 21.015625 -32.390625 20.628906 -32.390625 L 10.71875 -32.390625 C 10.027344 -32.390625 8.019531 -32.390625 7.441406 -29.691406 Z M 7.441406 -29.691406 "/></g></g></g><g fill="#9d3be1" fill-opacity="1"><g transform="translate(358.360094, 64.405974)"><g><path d="M 1.65625 -38.5625 C 1.234375 -38.5625 0.808594 -38.214844 0.734375 -37.789062 L 0 -34.359375 C 0 -33.894531 0.230469 -33.585938 0.617188 -33.585938 L 8.289062 -33.585938 C 1.3125 -0.695312 1.273438 -0.617188 1.273438 -0.578125 C 1.273438 -0.230469 1.582031 0 1.929688 0 L 6.476562 0 C 6.902344 0 7.289062 -0.347656 7.402344 -0.769531 L 14.382812 -33.585938 L 22.058594 -33.585938 C 22.480469 -33.585938 22.90625 -33.933594 22.984375 -34.359375 L 23.714844 -37.945312 C 23.714844 -38.292969 23.484375 -38.5625 23.097656 -38.5625 Z M 1.65625 -38.5625 "/></g></g></g><g fill="#9d3be1" fill-opacity="1"><g transform="translate(368.732573, 64.405974)"><g><path d="M 8.792969 -32.390625 C 8.367188 -32.390625 7.945312 -32.042969 7.867188 -31.621094 C 1.3125 -0.695312 1.273438 -0.617188 1.273438 -0.578125 C 1.273438 -0.230469 1.582031 0 1.929688 0 L 6.515625 0 C 6.941406 0 7.328125 -0.347656 7.441406 -0.769531 L 13.996094 -31.773438 C 13.996094 -32.121094 13.765625 -32.390625 13.382812 -32.390625 Z M 8.792969 -32.390625 "/></g></g></g><g fill="#9d3be1" fill-opacity="1"><g transform="translate(379.105051, 64.405974)"><g><path d="M 7.441406 -29.691406 C 1.621094 -2.390625 1.621094 -2.082031 1.621094 -1.851562 C 1.621094 -0.0390625 3.199219 0 3.816406 0 L 12.648438 0 C 13.34375 0 15.308594 -0.0390625 15.886719 -2.699219 C 21.671875 -30.039062 21.710938 -30.308594 21.710938 -30.578125 C 21.710938 -32.351562 20.128906 -32.390625 19.511719 -32.390625 L 10.644531 -32.390625 C 9.910156 -32.390625 8.019531 -32.316406 7.441406 -29.691406 Z M 10.179688 -4.972656 L 8.328125 -4.972656 L 13.109375 -27.417969 L 14.960938 -27.417969 Z M 10.179688 -4.972656 "/></g></g></g><g fill="#9d3be1" fill-opacity="1"><g transform="translate(397.497751, 64.405974)"><g><path d="M 8.792969 -32.390625 C 8.367188 -32.390625 7.945312 -32.042969 7.867188 -31.621094 C 1.3125 -0.695312 1.273438 -0.617188 1.273438 -0.578125 C 1.273438 -0.230469 1.582031 0 1.929688 0 L 6.015625 0 C 6.441406 0 6.824219 -0.347656 6.941406 -0.769531 L 10.066406 -15.425781 C 11.761719 -0.695312 11.722656 -0.617188 11.722656 -0.578125 C 11.722656 -0.230469 12.03125 0 12.378906 0 L 16.390625 0 C 16.8125 0 17.199219 -0.347656 17.3125 -0.769531 L 23.871094 -31.773438 C 23.871094 -32.121094 23.636719 -32.390625 23.253906 -32.390625 L 19.242188 -32.390625 C 18.816406 -32.390625 18.394531 -32.042969 18.316406 -31.621094 L 14.960938 -15.808594 L 13.496094 -31.773438 C 13.496094 -32.121094 13.265625 -32.390625 12.878906 -32.390625 Z M 8.792969 -32.390625 "/></g></g></g><path stroke-linecap="butt" transform="matrix(0.248241, 0, 0, 0.248241, 0.96405, 28.211069)" fill="none" stroke-linejoin="miter" d="M 157.313267 141.007326 C 160.114227 141.007326 168.045034 140.849969 170.389657 130.118202 C 182.034096 75.279191 182.191453 74.209161 182.191453 73.10766 C 182.191453 65.979376 175.818483 65.837754 173.316503 65.837754 L 159.657891 65.837754 L 167.289719 30.558252 L 190.106524 30.558252 C 191.821719 30.558252 193.521177 29.157773 193.835892 27.458314 L 196.794209 12.99718 C 196.794209 11.5967 195.834329 10.495199 194.292228 10.495199 L 157.502096 10.495199 C 154.685401 10.495199 146.77033 10.652557 144.457178 21.226966 C 132.62391 77.167478 132.466553 78.237508 132.466553 79.339009 C 132.466553 86.467293 138.839523 86.608915 141.341504 86.608915 L 155.000115 86.608915 L 148.013452 119.071721 L 126.738748 119.071721 C 125.03929 119.071721 123.481453 120.487937 122.993645 122.187395 C 119.720614 138.190631 119.578992 138.489609 119.578992 138.694174 C 119.578992 140.047447 120.822115 141.007326 122.222594 141.007326 Z M 188.847666 -14.335779 C 187.148207 -14.335779 185.433013 -12.935299 185.134034 -11.235841 L 182.175717 2.580128 C 182.175717 4.468416 183.119861 5.680067 184.677698 5.680067 L 215.582668 5.680067 C 187.447186 138.190631 187.289829 138.489609 187.289829 138.694174 C 187.289829 140.047447 188.548687 141.007326 189.949167 141.007326 L 208.265554 141.007326 C 209.980748 141.007326 211.52285 139.59111 211.979186 137.891652 L 240.130403 5.680067 L 271.035372 5.680067 C 272.734831 5.680067 274.450025 4.326794 274.749004 2.580128 L 277.707321 -11.833798 C 277.707321 -13.234278 276.763177 -14.335779 275.20534 -14.335779 Z M 301.782985 65.035232 C 311.41325 19.983843 311.570607 18.913814 311.570607 17.828049 C 311.570607 10.652557 305.197637 10.495199 302.727128 10.495199 L 259.375198 10.495199 C 257.675739 10.495199 255.976281 11.911415 255.661566 13.610874 C 229.225544 138.190631 229.083922 138.489609 229.083922 138.694174 C 229.083922 140.047447 230.327044 141.007326 231.727524 141.007326 L 250.201269 141.007326 C 251.916463 141.007326 253.458564 139.59111 253.962108 137.891652 L 264.961381 85.711978 L 272.435852 85.711978 C 261.389371 138.190631 261.24775 138.489609 261.24775 138.694174 C 261.24775 140.047447 262.490872 141.007326 263.891352 141.007326 L 282.365096 141.007326 C 284.064555 141.007326 285.622392 139.59111 286.078728 137.891652 C 297.125209 86.168314 297.266831 85.066814 297.266831 83.996784 C 297.266831 76.679671 290.893861 76.679671 288.439087 76.679671 L 288.738066 75.924356 C 291.539026 75.924356 299.62719 75.924356 301.782985 65.035232 Z M 276.794649 30.558252 L 284.221912 30.558252 L 276.637291 65.837754 L 269.162821 65.837754 Z M 329.918466 13.610874 C 303.482443 138.190631 303.325086 138.489609 303.325086 138.694174 C 303.325086 140.047447 304.583944 141.007326 305.984424 141.007326 L 351.334791 141.007326 C 353.049986 141.007326 354.607823 139.59111 355.064159 137.891652 L 357.865118 124.091419 L 357.865118 123.446254 C 357.865118 122.030038 356.920975 120.975744 355.363138 120.975744 L 331.775282 120.975744 L 339.548731 84.154141 L 355.504759 84.154141 C 357.219954 84.154141 358.966619 82.753662 359.422956 81.038467 C 362.522894 65.491568 362.680251 65.334211 362.680251 65.035232 C 362.680251 63.634752 361.57875 62.72208 360.17827 62.72208 L 344.175035 62.72208 L 351.035813 30.558252 L 374.623669 30.558252 C 376.338863 30.558252 378.038322 29.157773 378.384508 27.458314 L 381.452974 12.99718 C 381.452974 11.5967 380.540302 10.495199 378.982465 10.495199 L 333.632098 10.495199 C 331.916903 10.495199 330.217445 11.911415 329.918466 13.610874 Z M 409.90317 10.495199 C 407.102211 10.495199 399.171404 10.652557 396.858252 21.384323 C 372.137424 138.190631 371.980066 138.489609 371.980066 138.694174 C 371.980066 140.047447 373.238925 141.007326 374.639404 141.007326 L 393.113149 141.007326 C 394.812607 141.007326 396.370444 139.59111 396.858252 137.891652 L 405.843353 95.027529 L 413.317823 95.027529 C 404.301251 138.190631 404.143894 138.489609 404.143894 138.694174 C 404.143894 140.047447 405.402752 141.007326 406.803232 141.007326 L 425.261241 141.007326 C 426.976435 141.007326 428.534272 139.59111 428.990608 137.891652 C 454.32513 19.983843 454.466752 18.913814 454.466752 17.828049 C 454.466752 10.652557 448.093782 10.495199 445.639008 10.495199 Z M 419.690793 30.558252 L 427.133792 30.558252 L 417.645148 75.121834 L 410.217885 75.121834 Z M 484.301691 10.495199 C 481.500732 10.495199 473.428304 10.495199 471.115152 21.384323 C 446.378587 138.190631 446.236966 138.489609 446.236966 138.694174 C 446.236966 140.047447 447.480088 141.007326 448.880568 141.007326 L 467.354313 141.007326 C 469.069507 141.007326 470.611608 139.59111 471.115152 137.891652 L 493.947693 30.558252 L 501.374956 30.558252 C 478.542415 138.347988 478.385058 138.489609 478.385058 138.835795 C 478.385058 140.236275 479.486559 141.148947 480.887039 141.148947 L 499.360783 141.148947 C 501.075977 141.148947 502.775436 139.748468 503.231772 138.049009 L 526.095785 30.558252 L 533.680405 30.558252 C 510.847864 138.190631 510.706243 138.489609 510.706243 138.694174 C 510.706243 140.047447 511.949365 141.007326 513.365581 141.007326 L 531.681968 141.007326 C 533.381427 141.007326 534.939264 139.59111 535.3956 137.891652 C 560.273785 19.983843 560.415407 18.913814 560.415407 17.828049 C 560.415407 10.495199 553.900816 10.495199 551.398835 10.495199 L 528.723651 10.495199 C 517.834527 10.495199 516.119333 18.268649 515.678733 21.085344 L 514.907682 21.085344 C 515.065039 19.983843 515.222397 18.724985 515.222397 17.513334 C 515.222397 14.256038 513.806181 10.495199 506.190089 10.495199 Z M 603.594244 12.99718 C 603.594244 11.5967 602.6501 10.495199 601.092263 10.495199 L 582.618519 10.495199 C 580.91906 10.495199 579.203866 11.911415 578.904887 13.610874 L 546.599438 166.483469 C 546.599438 167.883949 547.354753 168.953979 548.91259 168.953979 L 602.6501 168.953979 C 604.349559 168.953979 606.064753 167.553499 606.395204 165.838304 L 609.809857 150.480234 L 609.809857 149.835069 C 609.809857 148.466061 608.865713 147.36456 607.307876 147.36456 L 575.144048 147.36456 Z M 624.412612 10.495199 C 622.697418 10.495199 620.997959 11.911415 620.683244 13.610874 C 594.262957 138.190631 594.1056 138.489609 594.1056 138.694174 C 594.1056 140.047447 595.348723 141.007326 596.764938 141.007326 L 615.222947 141.007326 C 616.938141 141.007326 618.495978 139.59111 618.983786 137.891652 L 645.372601 12.99718 C 645.372601 11.5967 644.428458 10.495199 642.870621 10.495199 Z M 637.441795 -14.335779 C 635.742336 -14.335779 634.027142 -12.935299 633.728163 -11.235841 L 630.769846 2.580128 C 630.769846 4.468416 631.71399 5.680067 633.271827 5.680067 L 664.176796 5.680067 C 636.041315 138.190631 635.883958 138.489609 635.883958 138.694174 C 635.883958 140.047447 637.142816 141.007326 638.543296 141.007326 L 656.859683 141.007326 C 658.574877 141.007326 660.116978 139.59111 660.573314 137.891652 L 688.724532 5.680067 L 719.629501 5.680067 C 721.32896 5.680067 723.044154 4.326794 723.343133 2.580128 L 726.30145 -11.833798 C 726.30145 -13.234278 725.357306 -14.335779 723.799469 -14.335779 Z M 734.672857 86.608915 C 736.372315 86.608915 738.118981 85.255642 738.433696 83.508976 L 741.392013 69.09505 C 741.392013 67.69457 740.432133 66.593069 738.890032 66.593069 L 695.994438 66.593069 C 694.279243 66.593069 692.579785 67.993549 692.280806 69.708743 L 689.322489 84.154141 C 689.322489 85.554621 690.266633 86.608915 691.82447 86.608915 Z M 817.143806 64.091088 C 826.475093 19.983843 826.63245 18.913814 826.63245 17.828049 C 826.63245 10.495199 820.102123 10.495199 817.64735 10.495199 L 774.138062 10.495199 C 772.438604 10.495199 770.739145 11.911415 770.42443 13.610874 C 743.988408 138.190631 743.846786 138.489609 743.846786 138.694174 C 743.846786 140.047447 745.089909 141.007326 746.490388 141.007326 L 789.999676 141.007326 C 792.769164 141.007326 800.841592 141.007326 803.201951 130.118202 C 812.67486 85.255642 812.832217 83.996784 812.832217 82.895283 C 812.832217 75.766998 806.600869 75.766998 804.098888 75.766998 L 804.287717 74.980212 C 807.057205 74.980212 814.830654 74.980212 817.143806 64.091088 Z M 779.724246 85.711978 L 787.182981 85.711978 L 779.724246 120.975744 L 772.281246 120.975744 Z M 791.557513 30.558252 L 798.984776 30.558252 L 791.400156 65.837754 L 783.925685 65.837754 Z M 869.669666 12.99718 C 869.669666 11.5967 868.725522 10.495199 867.167685 10.495199 L 848.709676 10.495199 C 846.994482 10.495199 845.295023 11.911415 844.980309 13.610874 L 812.67486 166.483469 C 812.67486 167.883949 813.430175 168.953979 814.988012 168.953979 L 868.725522 168.953979 C 870.440716 168.953979 872.140175 167.553499 872.486361 165.838304 L 875.901014 150.480234 L 875.901014 149.835069 C 875.901014 148.466061 874.941135 147.36456 873.399033 147.36456 L 841.235206 147.36456 Z M 897.915297 141.007326 C 900.731992 141.007326 908.647064 140.849969 911.007423 130.118202 C 922.651861 75.279191 922.793483 74.209161 922.793483 73.10766 C 922.793483 65.979376 916.420513 65.837754 913.918532 65.837754 L 900.275656 65.837754 L 907.891749 30.558252 L 930.72429 30.558252 C 932.423748 30.558252 934.138943 29.157773 934.437921 27.458314 L 937.396238 12.99718 C 937.396238 11.5967 936.452095 10.495199 934.894258 10.495199 L 898.104126 10.495199 C 895.303166 10.495199 887.37236 10.652557 885.059208 21.226966 C 873.22594 77.167478 873.084319 78.237508 873.084319 79.339009 C 873.084319 86.467293 879.457288 86.608915 881.959269 86.608915 L 895.602145 86.608915 L 888.631218 119.071721 L 867.356514 119.071721 C 865.641319 119.071721 864.083482 120.487937 863.595675 122.187395 C 860.338379 138.190631 860.181022 138.489609 860.181022 138.694174 C 860.181022 140.047447 861.43988 141.007326 862.84036 141.007326 Z M 984.902401 86.608915 C 986.617595 86.608915 988.364261 85.255642 988.663239 83.508976 L 991.621556 69.09505 C 991.621556 67.69457 990.677413 66.593069 989.119576 66.593069 L 946.223982 66.593069 C 944.524523 66.593069 942.809329 67.993549 942.51035 69.708743 L 939.552033 84.154141 C 939.552033 85.554621 940.496177 86.608915 942.054014 86.608915 Z M 1018.954516 21.384323 C 995.47681 131.361325 995.47681 132.620183 995.47681 133.532855 C 995.47681 141.007326 1002.007137 141.007326 1004.509117 141.007326 L 1045.957024 141.007326 C 1047.672219 141.007326 1049.21432 139.59111 1049.717863 137.891652 L 1052.487352 124.091419 L 1052.487352 123.446254 C 1052.487352 122.030038 1051.574679 120.975744 1050.016842 120.975744 L 1022.526526 120.975744 L 1041.787057 30.558252 L 1067.735272 30.558252 C 1069.43473 30.558252 1071.134189 29.157773 1071.448904 27.458314 L 1074.548842 12.99718 C 1074.548842 11.5967 1073.604698 10.495199 1072.046861 10.495199 L 1032.156791 10.495199 C 1029.355832 10.495199 1021.267668 10.495199 1018.954516 21.384323 Z M 1089.009976 21.384323 C 1065.53227 131.361325 1065.53227 132.620183 1065.53227 133.532855 C 1065.53227 140.849969 1071.90524 141.007326 1074.40722 141.007326 L 1109.938494 141.007326 C 1112.755189 141.007326 1120.685996 140.849969 1123.030619 130.118202 C 1146.319497 19.983843 1146.461118 18.913814 1146.461118 17.828049 C 1146.461118 10.652557 1140.088148 10.495199 1137.633375 10.495199 L 1101.866065 10.495199 C 1098.954956 10.495199 1091.323128 10.841385 1089.009976 21.384323 Z M 1100.00925 120.975744 L 1092.581986 120.975744 L 1111.842517 30.558252 L 1119.26978 30.558252 Z M 1168.522608 10.495199 C 1166.82315 10.495199 1165.107956 11.911415 1164.808977 13.610874 C 1138.372954 138.190631 1138.231332 138.489609 1138.231332 138.694174 C 1138.231332 140.047447 1139.474455 141.007326 1140.874935 141.007326 L 1157.334506 141.007326 C 1159.0497 141.007326 1160.607537 139.59111 1161.048138 137.891652 L 1173.652456 78.882672 C 1180.466026 138.190631 1180.324404 138.489609 1180.324404 138.694174 C 1180.324404 140.047447 1181.567527 141.007326 1182.968007 141.007326 L 1199.128599 141.007326 C 1200.843793 141.007326 1202.385895 139.59111 1202.842231 137.891652 L 1229.246782 12.99718 C 1229.246782 11.5967 1228.33411 10.495199 1226.776273 10.495199 L 1210.61568 10.495199 C 1208.916222 10.495199 1207.216763 11.911415 1206.902049 13.610874 L 1193.369323 77.324835 L 1187.48416 12.99718 C 1187.48416 11.5967 1186.540017 10.495199 1184.98218 10.495199 Z M 1250.080886 10.495199 C 1248.365691 10.495199 1246.666233 11.911415 1246.351518 13.610874 C 1219.931231 138.190631 1219.773874 138.489609 1219.773874 138.694174 C 1219.773874 140.047447 1221.016996 141.007326 1222.433212 141.007326 L 1238.892783 141.007326 C 1240.592242 141.007326 1242.150079 139.59111 1242.606415 137.891652 L 1255.194997 78.882672 C 1262.024303 138.190631 1261.866946 138.489609 1261.866946 138.694174 C 1261.866946 140.047447 1263.125804 141.007326 1264.526284 141.007326 L 1280.686876 141.007326 C 1282.386335 141.007326 1283.944172 139.59111 1284.400508 137.891652 L 1310.789324 12.99718 C 1310.789324 11.5967 1309.876651 10.495199 1308.318814 10.495199 L 1292.173958 10.495199 C 1290.458763 10.495199 1288.759305 11.911415 1288.460326 13.610874 L 1274.911864 77.324835 L 1269.042438 12.99718 C 1269.042438 11.5967 1268.082558 10.495199 1266.540457 10.495199 Z M 1327.909796 13.610874 C 1301.473773 138.190631 1301.316416 138.489609 1301.316416 138.694174 C 1301.316416 140.047447 1302.575274 141.007326 1303.975754 141.007326 L 1349.326121 141.007326 C 1351.041315 141.007326 1352.599152 139.59111 1353.055489 137.891652 L 1355.856448 124.091419 L 1355.856448 123.446254 C 1355.856448 122.030038 1354.912304 120.975744 1353.354467 120.975744 L 1329.766611 120.975744 L 1337.540061 84.154141 L 1353.511825 84.154141 C 1355.211283 84.154141 1356.957949 82.753662 1357.414285 81.038467 C 1360.514224 65.491568 1360.671581 65.334211 1360.671581 65.035232 C 1360.671581 63.634752 1359.57008 62.72208 1358.1696 62.72208 L 1342.166365 62.72208 L 1349.027142 30.558252 L 1372.614998 30.558252 C 1374.330193 30.558252 1376.029651 29.157773 1376.375837 27.458314 L 1379.444304 12.99718 C 1379.444304 11.5967 1378.531632 10.495199 1376.973795 10.495199 L 1331.623427 10.495199 C 1329.908233 10.495199 1328.208774 11.911415 1327.909796 13.610874 Z M 1394.849582 21.384323 C 1371.371876 131.361325 1371.371876 132.620183 1371.371876 133.532855 C 1371.371876 141.007326 1377.902203 141.007326 1380.404184 141.007326 L 1421.852091 141.007326 C 1423.567285 141.007326 1425.125122 139.59111 1425.61293 137.891652 L 1428.382418 124.091419 L 1428.382418 123.446254 C 1428.382418 122.030038 1427.469745 120.975744 1425.911908 120.975744 L 1398.421592 120.975744 L 1417.682123 30.558252 L 1443.630338 30.558252 C 1445.329797 30.558252 1447.044991 29.157773 1447.34397 27.458314 L 1450.459644 12.99718 C 1450.459644 11.5967 1449.499764 10.495199 1447.941927 10.495199 L 1408.051857 10.495199 C 1405.250898 10.495199 1397.162734 10.495199 1394.849582 21.384323 Z M 1441.584693 -14.335779 C 1439.885235 -14.335779 1438.17004 -12.935299 1437.871062 -11.235841 L 1434.912745 2.580128 C 1434.912745 4.468416 1435.856888 5.680067 1437.414725 5.680067 L 1468.319695 5.680067 C 1440.184214 138.190631 1440.026856 138.489609 1440.026856 138.694174 C 1440.026856 140.047447 1441.285714 141.007326 1442.686194 141.007326 L 1461.002581 141.007326 C 1462.70204 141.007326 1464.259877 139.59111 1464.716213 137.891652 L 1492.851695 5.680067 L 1523.7724 5.680067 C 1525.471858 5.680067 1527.187053 4.326794 1527.486031 2.580128 L 1530.444348 -11.833798 C 1530.444348 -13.234278 1529.500205 -14.335779 1527.942368 -14.335779 Z M 1512.112225 10.495199 C 1510.412767 10.495199 1508.697572 11.911415 1508.398594 13.610874 C 1481.962571 138.190631 1481.820949 138.489609 1481.820949 138.694174 C 1481.820949 140.047447 1483.064072 141.007326 1484.464552 141.007326 L 1502.938296 141.007326 C 1504.637755 141.007326 1506.195592 139.59111 1506.699135 137.891652 L 1533.087951 12.99718 C 1533.087951 11.5967 1532.143807 10.495199 1530.58597 10.495199 Z M 1548.477492 21.384323 C 1524.999786 131.361325 1524.999786 132.620183 1524.999786 133.532855 C 1524.999786 140.849969 1531.372756 141.007326 1533.874737 141.007326 L 1569.40601 141.007326 C 1572.222706 141.007326 1580.137777 140.849969 1582.498136 130.118202 C 1605.787013 19.983843 1605.928635 18.913814 1605.928635 17.828049 C 1605.928635 10.652557 1599.555665 10.495199 1597.100891 10.495199 L 1561.333582 10.495199 C 1558.406737 10.495199 1550.790644 10.841385 1548.477492 21.384323 Z M 1559.476766 120.975744 L 1552.033767 120.975744 L 1571.310033 30.558252 L 1578.737297 30.558252 Z M 1627.990125 10.495199 C 1626.290666 10.495199 1624.575472 11.911415 1624.276493 13.610874 C 1597.840471 138.190631 1597.683113 138.489609 1597.683113 138.694174 C 1597.683113 140.047447 1598.941971 141.007326 1600.342451 141.007326 L 1616.802023 141.007326 C 1618.517217 141.007326 1620.059318 139.59111 1620.515654 137.891652 L 1633.104237 78.882672 C 1639.933542 138.190631 1639.791921 138.489609 1639.791921 138.694174 C 1639.791921 140.047447 1641.035043 141.007326 1642.435523 141.007326 L 1658.596116 141.007326 C 1660.295574 141.007326 1661.853411 139.59111 1662.309747 137.891652 L 1688.714299 12.99718 C 1688.714299 11.5967 1687.801626 10.495199 1686.243789 10.495199 L 1670.083197 10.495199 C 1668.383738 10.495199 1666.668544 11.911415 1666.369565 13.610874 L 1652.836839 77.324835 L 1646.951677 12.99718 C 1646.951677 11.5967 1646.007533 10.495199 1644.449696 10.495199 Z M 1627.990125 10.495199 " stroke="#79ffa0" stroke-width="2.912639" stroke-opacity="1" stroke-miterlimit="4"/></svg>